<?xml version="1.0" encoding="UTF-8" standalone="no"?>
<svg width="72px" height="72px" viewBox="0 0 72 72" version="1.1" xmlns="http://www.w3.org/2000/svg" xmlns:xlink="http://www.w3.org/1999/xlink" xmlns:sketch="http://www.bohemiancoding.com/sketch/ns">
    <!-- Generator: Sketch 3.4 (15575) - http://www.bohemiancoding.com/sketch -->
    <title>icon-two-bowls</title>
    <desc>Created with Sketch.</desc>
    <defs></defs>
    <g id="Page-1" stroke="none" stroke-width="1" fill="none" fill-rule="evenodd" sketch:type="MSPage">
        <g id="icon-two-bowls" sketch:type="MSArtboardGroup" stroke-linecap="round" stroke="#353535" stroke-width="2">
            <g id="Oval-2-+-Oval-2-Copy" sketch:type="MSLayerGroup" transform="translate(7.500000, 14.000000)">
                <path d="M0.635955514,11.0767668 C0.635955514,19.4615662 7.4331784,26.2587891 15.8179778,26.2587891 L15.8179778,26.2587891 C24.2027771,26.2587891 31,19.4615662 31,11.0767668 M15.8179778,15.7481583 C24.2027771,15.7481583 31,13.6567051 31,11.0767668 C31,8.49682856 24.2027771,6.40537536 15.8179778,6.40537536 C7.4331784,6.40537536 0.635955514,8.49682856 0.635955514,11.0767668 C0.635955514,13.6567051 7.4331784,15.7481583 15.8179778,15.7481583 Z M4.72342304,1.51885403 L9.3948145,14.3651805" id="Oval-2" sketch:type="MSShapeGroup"></path>
                <path d="M26,28.5258057 C26,36.910605 32.7972229,43.7078279 41.1820222,43.7078279 L41.1820222,43.7078279 C49.5668216,43.7078279 56.3640445,36.910605 56.3640445,28.5258057 M41.1820222,33.1971971 C49.5668216,33.1971971 56.3640445,31.1057439 56.3640445,28.5258057 C56.3640445,25.9458674 49.5668216,23.8544142 41.1820222,23.8544142 C32.7972229,23.8544142 26,25.9458674 26,28.5258057 C26,31.1057439 32.7972229,33.1971971 41.1820222,33.1971971 Z M30.0874675,18.9678929 L34.758859,31.8142194" id="Oval-2-Copy" sketch:type="MSShapeGroup" transform="translate(41.182022, 31.045898) scale(-1, 1) translate(-41.182022, -31.045898) "></path>
            </g>
        </g>
    </g>
</svg>