<?xml version="1.0" encoding="UTF-8" standalone="no"?>
<svg width="226px" height="61px" viewBox="0 0 226 61" version="1.1" xmlns="http://www.w3.org/2000/svg" xmlns:xlink="http://www.w3.org/1999/xlink" xmlns:sketch="http://www.bohemiancoding.com/sketch/ns">
    <!-- Generator: Sketch 3.3.3 (12072) - http://www.bohemiancoding.com/sketch -->
    <title>Cutlery</title>
    <desc>Created with Sketch.</desc>
    <defs></defs>
    <g id="Page-1" stroke="none" stroke-width="1" fill="none" fill-rule="evenodd" sketch:type="MSPage">
        <path d="M40.36,30.16 L34.96,30.16 C33.7,35.02 31.12,40.6 23.56,40.6 C14.8,40.6 10.54,31.9 10.54,23.38 C10.54,15.28 14.44,6.1 23.14,6.22 C28.06,6.28 30.7,7.78 32.32,10.18 C30.46,10.18 27.58,11.5 27.58,14.86 L27.58,15.28 C27.76,18.04 29.8,19.54 32.56,19.54 C36.34,19.54 38.32,16.54 38.32,14.08 C38.32,4.96 29.62,0.58 22.3,0.58 C9.4,0.58 0.64,11.62 0.64,23.26 C0.64,35.8 8.44,46.78 21.46,46.78 C32.62,46.78 38.86,40.42 40.36,30.16 L40.36,30.16 Z M53.14,14.56 L53.14,35.98 C53.14,40.42 55.9,41.62 58.3,41.62 C63.34,41.62 65.86,37.54 65.86,31.84 L65.86,19.18 L60.4,19.18 L60.4,14.56 L73.36,14.56 L73.36,40.96 L78.22,40.96 L78.22,45.7 L66.04,46.24 L66.04,40.36 C64.72,44.62 60.04,46.78 56.14,46.78 C52.96,46.78 45.64,45.82 45.64,35.74 L45.64,19.18 L40.36,19.18 L40.36,14.56 L53.14,14.56 Z M83.56,19.12 L77.26,19.12 L77.26,17.08 C85.12,14.44 88,5.26 88.84,2.5 C89.02,1.84 89.56,1.48 90.16,1.48 C90.76,1.48 91.3,1.84 91.3,2.5 L91.3,14.56 L101.98,14.56 L101.98,19.18 L91.3,19.18 L91.3,37.06 C91.3,38.08 91.72,41.08 94.9,41.08 C97.48,41.08 98.74,39.34 98.74,35.08 L98.74,31.54 L103,31.54 L103,34.72 C103,42.7 100.48,46.78 92.74,46.78 C88.96,46.78 83.56,44.14 83.56,37.84 L83.56,19.12 Z M119.5,1.48 L119.5,40.96 L125.26,40.96 L125.26,46 L105.94,46 L105.94,40.96 L112,40.96 L112,6.28 L106.06,6.28 L106.06,1.48 L119.5,1.48 Z M143.26,46.84 L143.44,46.84 C149.44,46.84 155.02,43.48 156.64,36.82 L152.32,34.9 C151.12,37.84 148.36,40.9 144.46,41.02 C138.04,41.2 135.58,35.62 135.58,30.94 C135.58,30.58 135.64,30.28 135.64,29.98 L157.48,29.98 C157.3,19.12 150.82,13.66 142.66,13.66 C134.26,13.66 127.72,21.04 127.72,30.34 C127.72,40.42 134.38,46.78 143.26,46.84 L143.26,46.84 Z M143.38,18.1 C147.58,18.1 149.86,21.64 149.86,26.2 L135.88,26.2 C136.42,22.36 139.12,18.1 143.38,18.1 L143.38,18.1 Z M180.1,40.96 L173.8,40.96 L173.8,30.52 C173.8,25.18 174.58,19 179.68,18.58 C179.38,18.82 179.14,19.3 179.14,20.92 C179.14,23.44 181.42,24.7 183.52,24.7 C185.74,24.7 188.26,22.78 188.26,19.54 C188.26,15.22 185.08,13.96 182.14,14.08 C178.24,14.26 175,16.36 173.62,19.9 L173.62,14.2 L160.66,14.92 L160.66,19.18 L166.3,19.18 L166.3,40.96 L160.96,40.96 L160.96,46 L180.1,46 L180.1,40.96 Z M197.26,60.52 L197.62,60.52 C205.9,60.34 208.84,52.72 211.3,46.12 L221.14,19.18 L225.76,19.18 L225.76,14.56 L209.98,14.56 L209.98,19.18 L214.36,19.18 L208.24,38.38 L201.16,19.18 L205.72,19.18 L205.72,14.56 L186.94,14.56 L186.94,19.18 L192.4,19.18 L203.62,46 C202.12,52.84 200.08,56.44 196.66,56.44 C195.94,56.44 195.4,56.38 194.92,56.26 C195.76,55.42 196.54,53.56 196.54,52.12 C196.54,49.84 194.86,48.34 192.4,48.34 C189.52,48.34 187.54,50.56 187.54,53.02 C187.54,58.06 191.92,60.52 197.26,60.52 L197.26,60.52 Z" id="Cutlery" fill="#FFFFFF" sketch:type="MSShapeGroup"></path>
    </g>
</svg>